<?xml version="1.0" encoding="UTF-8" standalone="no"?>
<svg width="350px" height="220px" viewBox="0 0 350 220" version="1.1" xmlns="http://www.w3.org/2000/svg" xmlns:xlink="http://www.w3.org/1999/xlink">
    <!-- Generator: Sketch 3.6.1 (26313) - http://www.bohemiancoding.com/sketch -->
    <title>Artboard 4</title>
    <desc>Created with Sketch.</desc>
    <defs></defs>
    <g id="Page-1" stroke="none" stroke-width="1" fill="none" fill-rule="evenodd">
        <g id="Artboard-4" fill="#FFFFFF">
            <g id="Washing-Machine" transform="translate(113.000000, 71.000000)">
                <path d="M0,4.99076843 C0,2.23444314 2.23119649,0 4.99809147,0 L122.001909,0 C124.762278,0 127,2.23682597 127,4.99076843 L127,145.009232 C127,147.765557 124.768804,150 122.001909,150 L4.99809147,150 C2.23772177,150 0,147.763174 0,145.009232 L0,4.99076843 Z M63,114 C81.2253967,114 96,99.2253967 96,81 C96,62.7746033 81.2253967,48 63,48 C44.7746033,48 30,62.7746033 30,81 C30,99.2253967 44.7746033,114 63,114 Z M63,121 C40.90861,121 23,103.09139 23,81 C23,58.90861 40.90861,41 63,41 C85.09139,41 103,58.90861 103,81 C103,103.09139 85.09139,121 63,121 Z M77,30 C82.5228475,30 87,25.5228475 87,20 C87,14.4771525 82.5228475,10 77,10 C71.4771525,10 67,14.4771525 67,20 C67,25.5228475 71.4771525,30 77,30 Z M107,30 C112.522847,30 117,25.5228475 117,20 C117,14.4771525 112.522847,10 107,10 C101.477153,10 97,14.4771525 97,20 C97,25.5228475 101.477153,30 107,30 Z M63,109 C78.463973,109 91,96.463973 91,81 C91,65.536027 78.463973,53 63,53 C47.536027,53 35,65.536027 35,81 C35,96.463973 47.536027,109 63,109 Z" id="Combined-Shape"></path>
                <path d="M42.676098,76.3023949 C48.0297939,76.3023949 52.9107658,81.4906061 63.2953178,79.9775133 C73.6798698,78.4644206 75.7993079,76.3596156 83.0542823,76.9067869 C90.3092567,77.4539582 95.2429038,78.4644206 95.2429038,78.4644206 C95.2429038,78.4644206 97.0999671,86.8241444 80.7693626,104.504961 C64.438758,122.185778 38.4804674,99.8353119 38.4804674,99.8353119 L31.6442405,79.9775133 C31.6442405,79.9775133 37.3224021,76.3023949 42.676098,76.3023949 Z" id="Polygon-3"></path>
            </g>
        </g>
    </g>
</svg>