<?xml version="1.0" encoding="UTF-8" standalone="no"?>
<svg width="350px" height="220px" viewBox="0 0 350 220" version="1.1" xmlns="http://www.w3.org/2000/svg" xmlns:xlink="http://www.w3.org/1999/xlink">
    <!-- Generator: Sketch 3.6.1 (26313) - http://www.bohemiancoding.com/sketch -->
    <title>Artboard 4</title>
    <desc>Created with Sketch.</desc>
    <defs></defs>
    <g id="Page-1" stroke="none" stroke-width="1" fill="none" fill-rule="evenodd">
        <g id="Artboard-4" fill="#FFFFFF">
            <g id="Tennis-Racket" transform="translate(95.000000, 53.000000)">
                <path d="M26.1818345,126.967337 C27.6682711,126.967337 28.967916,128.308647 31.0179398,128.885821 C33.0679636,129.462996 39.4729476,120.593632 40.5764821,119.324936 C41.6800165,118.05624 45.7063954,92.7426892 44.6372654,87.1594985 C43.5681355,81.5763078 79.9407017,122.201058 73.5088017,120.895107 C67.0769017,119.589155 48.7895822,124.525965 47.1318371,125.278321 C45.474092,126.030677 37.2034273,134.017721 37.2034276,135.162362 C37.2034278,136.307002 38.0348749,140.121382 38.0348752,141.486921 C38.0348754,142.852461 13.3030004,166.270292 12.4189007,166.27029 C11.534801,166.270288 8.53307557,167.041136 3.89490056,162.45989 C-0.74327445,157.878645 0.67080426,153.387026 0.670804262,152.843067 C0.670804264,152.299108 24.6953979,126.967338 26.1818345,126.967337 Z M51.4024797,113.232775 C51.3395968,111.884148 51.4718953,109.832398 51.6532253,109.778598 C51.9073248,109.703207 56.2869853,114.033148 56.3018955,114.342142 C56.3168057,114.651135 51.92256,114.831589 51.5819339,114.342142 C51.4843847,114.201973 51.4277152,113.773993 51.4024797,113.232775 Z" id="Combined-Shape"></path>
                <path d="M86.4959048,23.5312307 C105.489511,14.3301728 125.887981,14.9847393 138.449305,27.5460631 C155.871843,44.9686011 150.388578,77.4679675 127.472464,100.384081 C104.55635,123.300195 72.0569839,128.78346 54.6344458,111.360922 C45.3655601,102.092037 42.5796999,88.5559587 45.4527839,74.4658414 L56.3869784,75.9074884 C53.9768605,86.8709102 55.8864056,97.0565329 62.4126204,103.582748 C74.8592999,116.029427 100.616502,111.683694 119.694289,92.6059067 C138.772077,73.5281192 143.11781,47.7709172 130.67113,35.3242377 C121.917505,26.5706118 106.580269,26.1227968 91.6131072,33.2640784 L86.4959048,23.5312307 Z" id="Combined-Shape"></path>
                <g id="Ball" transform="translate(10.000000, 0.000000)">
                    <path d="M53.2491722,55.9432755 C54.2505301,55.9432755 47.9889654,65.9411272 48.9595499,65.8266542 C60.7750827,64.433102 70.0678617,54.7997449 70.9340091,42.8304605 C70.9777496,42.2260107 61.5815286,49.5608109 61.5815286,48.9452071 C61.5815286,35.1380884 44.7476892,45.6084758 41.9711008,22.0804067 C41.8660723,21.1904235 42.6770307,20.3693173 42.7001962,20.2441408 C42.7233618,20.1189643 43.1542904,16.1600202 43.0648096,16.1704849 C31.1958976,17.5585484 21.8670021,27.2602531 21.0571187,39.2966035 C21.0192434,39.8595001 35.7585331,33.1254177 43.5477619,37.1532669 C51.3369907,41.1811161 39.4420535,55.9432755 53.2491722,55.9432755 Z"></path>
                    <g id="Group" transform="translate(32.000000, 16.000000)">
                        <path d="M38.9071354,26.8327801 C38.3053674,32.5554555 34.9470071,34.5827393 33.8001695,35.7313576 C32.6426876,36.8906367 34.4730404,37.26163 27.9429359,37.3500443 C27.8280043,37.3516004 21.466734,33.1591759 21.3514328,33.1591759 C14.9054171,33.1591759 14.5918639,32.5961688 10.1583843,28.5899086 C5.09552042,24.0149128 0.34189415,22.1095724 0.34189415,14.7484694 C0.34189415,6.05044713 5.51629162,5.0652442 5.51629162,5.0652442 C5.51629162,5.0652442 7.62826177,1.89520717 11.0401695,0.570772504 C11.0135097,1.04378648 11,1.52031556 11,2 C11,15.8071187 22.1928813,27 36,27 C36.9833381,27 37.9534163,26.943227 38.9071354,26.8327801 Z" id="Combined-Shape"></path>
                        <path d="M38.7978612,21.8058494 C37.3161941,10.187511 27.8598712,1.06044828 16.0903841,0.086153046 C16.0305847,0.716045263 16,1.35445091 16,2 C16,13.045695 24.954305,22 36,22 C36.9495285,22 37.8836021,21.9338299 38.7978612,21.8058494 Z" id="Combined-Shape"></path>
                    </g>
                    <g id="Group-2" transform="translate(39.000000, 47.000000) rotate(-180.000000) translate(-39.000000, -47.000000) translate(21.000000, 28.000000)">
                        <path d="M35.6704346,26.8590523 C33.8214417,32.0547135 24.7328899,35.552838 22.2833782,36.6093216 C18.9495726,38.0472045 23.1870692,35.6644592 15.5976549,35.6644592 C9.22806757,35.6644592 13.6444855,36.2852286 9.22988701,32.3047066 C5.67126361,29.0959937 14.9059095,26.3437116 9.22988739,25 C6.68403646,24.3973086 0.22687149,21.7445224 0.22687149,19.4415379 C0.22687149,10.3667789 3.99242413,5.44130993 3.99242413,5.44130993 C3.99242413,5.44130993 5.31124036,2.28728524 8.02915899,0.781830114 C8.00979367,1.18545128 8,1.59158192 8,2 C8,15.8071187 19.1928813,27 33,27 C33.902102,27 34.7930445,26.9522199 35.6704346,26.8590523 Z" id="Combined-Shape-Copy-2"></path>
                        <path d="M35.7978612,21.8058494 C34.3161941,10.187511 24.8598712,1.06044828 13.0903841,0.086153046 C13.0305847,0.716045263 13,1.35445091 13,2 C13,13.045695 21.954305,22 33,22 C33.9495285,22 34.8836021,21.9338299 35.7978612,21.8058494 Z" id="Combined-Shape-Copy"></path>
                    </g>
                </g>
            </g>
        </g>
    </g>
</svg>