<?xml version="1.0" encoding="UTF-8" standalone="no"?>
<svg width="350px" height="220px" viewBox="0 0 350 220" version="1.1" xmlns="http://www.w3.org/2000/svg" xmlns:xlink="http://www.w3.org/1999/xlink">
    <!-- Generator: Sketch 3.6.1 (26313) - http://www.bohemiancoding.com/sketch -->
    <title>Artboard 4</title>
    <desc>Created with Sketch.</desc>
    <defs></defs>
    <g id="Page-1" stroke="none" stroke-width="1" fill="none" fill-rule="evenodd">
        <g id="Artboard-4">
            <g id="Car" transform="translate(49.000000, 67.000000)">
                <path d="M177.63582,120.394737 L74.0089167,120.394737 C73.7456192,105.089359 61.2563579,92.7631579 45.8881579,92.7631579 C30.5199579,92.7631579 18.0306965,105.089359 17.7673991,120.394737 L9.86842105,120.394737 C9.86842105,120.394737 2.65217256,120.957605 0.868009423,115.343148 C0.868009433,106.351164 0.370524166,99.029776 0.868009423,95.453294 C1.36549468,91.876812 6.96307436,92.7813395 6.96307436,92.7813395 L6.96307436,67.883852 C6.96307436,67.883852 8.18889282,64.2758536 13.4391626,63.4653333 C18.6894324,62.654813 28.0821863,60.4963331 28.0821863,60.4963331 C28.0821863,60.4963331 41.4823308,7.70523242 42.4863353,4.87873727 C43.4903397,2.05224211 48.7181576,0.931073804 48.7181576,0.931073804 L173.537184,0.931073804 C173.537184,0.931073804 177.410487,0.931073804 179.271191,6.8380119 C181.131895,12.74495 196.309647,60.4963331 196.309647,60.4963331 C196.309647,60.4963331 222.977819,62.9260945 238.914229,64.3800099 C242.755197,64.3800099 246.746269,66.4681346 247.697368,67.8838538 C247.697374,82.8462416 247.697368,99.0297769 247.697368,99.0297769 C247.697368,99.0297769 251.985339,99.029776 254.005322,101.367605 C254.005327,107.709322 254.736068,114.608477 254.005322,116.81268 C252.933377,119.89091 247.697368,120.394737 247.697368,120.394737 L233.877338,120.394737 C233.61404,105.089359 221.124779,92.7631579 205.756579,92.7631579 C190.388379,92.7631579 177.899118,105.089359 177.63582,120.394737 Z M65.1662122,11.8240533 C65.5803272,9.65395174 67.7122693,7.89473684 69.9077322,7.89473684 L119.902776,7.89473684 L119.902776,61.1842105 L58.7552576,61.1842105 C57.0938088,61.1842105 55.9983107,59.8669353 56.3081582,58.2432305 L65.1662122,11.8240533 Z M173.903879,11.7164851 C173.253825,9.6057918 170.926676,7.89473684 168.726583,7.89473684 L125.328947,7.89473684 L125.328947,61.1842105 L186.146904,61.1842105 C187.799398,61.1842105 188.741445,59.8933398 188.25662,58.319137 L173.903879,11.7164851 Z M242.269737,92.7631579 C244.722317,92.7631579 246.710526,89.0076517 246.710526,84.375 C246.710526,79.7423483 244.722317,75.9868421 242.269737,75.9868421 C239.817157,75.9868421 237.828947,79.7423483 237.828947,84.375 C237.828947,89.0076517 239.817157,92.7631579 242.269737,92.7631579 Z" id="Combined-Shape" fill="#FFFFFF"></path>
                <g id="Wheels" transform="translate(23.684211, 101.644737)" stroke-width="10" stroke="#FFFFFF">
                    <circle id="Oval-20" cx="22.2039474" cy="22.2039474" r="22.2039474"></circle>
                    <circle id="Oval-20-Copy" cx="182.072368" cy="22.2039474" r="22.2039474"></circle>
                </g>
            </g>
        </g>
    </g>
</svg>