<?xml version="1.0" encoding="UTF-8" standalone="no"?>
<svg width="350px" height="220px" viewBox="0 0 350 220" version="1.1" xmlns="http://www.w3.org/2000/svg" xmlns:xlink="http://www.w3.org/1999/xlink">
    <!-- Generator: Sketch 3.6.1 (26313) - http://www.bohemiancoding.com/sketch -->
    <title>Artboard 4</title>
    <desc>Created with Sketch.</desc>
    <defs></defs>
    <g id="Page-1" stroke="none" stroke-width="1" fill="none" fill-rule="evenodd">
        <g id="Artboard-4" fill="#FFFFFF">
            <g id="Workstation" transform="translate(98.000000, 70.000000)">
                <path d="M0,0 L39,0 L39,150 L0,150 L0,0 Z M13,13 L26,13 L26,26 L13,26 L13,13 Z" id="Combined-Shape"></path>
                <rect id="Rectangle-21-Copy-2" x="46" y="137" width="72" height="13"></rect>
                <rect id="Rectangle-21-Copy-7" x="66" y="117" width="25" height="13"></rect>
                <path d="M46,98 L157,98 L157,117 L46,117 L46,98 Z M131,104 L144,104 L144,111 L131,111 L131,104 Z" id="Combined-Shape"></path>
                <rect id="Rectangle-21-Copy-4" x="46" y="0" width="111" height="13"></rect>
                <rect id="Rectangle-28" x="144" y="12" width="13" height="87"></rect>
            </g>
        </g>
    </g>
</svg>