<?xml version="1.0" encoding="UTF-8" standalone="no"?>
<svg width="350px" height="220px" viewBox="0 0 350 220" version="1.1" xmlns="http://www.w3.org/2000/svg" xmlns:xlink="http://www.w3.org/1999/xlink">
    <!-- Generator: Sketch 3.6.1 (26313) - http://www.bohemiancoding.com/sketch -->
    <title>Artboard 4</title>
    <desc>Created with Sketch.</desc>
    <defs></defs>
    <g id="Page-1" stroke="none" stroke-width="1" fill="none" fill-rule="evenodd">
        <g id="Artboard-4" fill="#FFFFFF">
            <g id="Camera" transform="translate(82.000000, 70.000000)">
                <path d="M0,31.4995622 C0,24.872387 5.37490569,19.5 12.0021684,19.5 L20.2554345,19.5 L20.2554345,10.3519535 L48.0661011,10.3519535 L48.0661011,19.5 L66.7798977,19.5 L85.2279682,0.688196182 L143.018177,0.688196182 L160.882896,19.5 L175.495746,19.5 C182.125512,19.5 187.5,24.8795527 187.5,31.4995622 L187.5,138.000438 C187.5,144.627613 182.128232,150 175.503716,150 L11.9962839,150 C5.37091926,150 0,144.620447 0,138.000438 L0,31.4995622 Z M114,117.5 C132.501539,117.5 147.5,102.501539 147.5,84 C147.5,65.4984609 132.501539,50.5 114,50.5 C95.4984609,50.5 80.5,65.4984609 80.5,84 C80.5,102.501539 95.4984609,117.5 114,117.5 Z M114,130.5 C88.3187591,130.5 67.5,109.681241 67.5,84 C67.5,58.3187591 88.3187591,37.5 114,37.5 C139.681241,37.5 160.5,58.3187591 160.5,84 C160.5,109.681241 139.681241,130.5 114,130.5 Z M33,43.5 C37.9705627,43.5 42,39.4705627 42,34.5 C42,29.5294373 37.9705627,25.5 33,25.5 C28.0294373,25.5 24,29.5294373 24,34.5 C24,39.4705627 28.0294373,43.5 33,43.5 Z" id="Combined-Shape"></path>
            </g>
        </g>
    </g>
</svg>