<?xml version="1.0" encoding="UTF-8" standalone="no"?>
<svg width="350px" height="220px" viewBox="0 0 350 220" version="1.1" xmlns="http://www.w3.org/2000/svg" xmlns:xlink="http://www.w3.org/1999/xlink">
    <!-- Generator: Sketch 3.6.1 (26313) - http://www.bohemiancoding.com/sketch -->
    <title>Artboard 4</title>
    <desc>Created with Sketch.</desc>
    <defs></defs>
    <g id="Page-1" stroke="none" stroke-width="1" fill="none" fill-rule="evenodd">
        <g id="Artboard-4" fill="#FFFFFF">
            <g id="Coffee-Machine" transform="translate(107.000000, 71.000000)">
                <path d="M89.5247885,124.553641 L89.5247885,43.6100648 L52.5397915,43.6100664 L52.5397915,56.0778738 L40.1603802,56.0778738 L40.1603802,43.6100664 L20.0428283,43.6100664 C20.0428283,43.6100664 2.93077676,39.9097936 2.93077676,20.0361335 C2.93077676,0.162473324 20.0428283,0.162473324 20.0428283,0.162473324 L112.556561,0.162473324 C112.556561,0.162473324 132.952419,0.162473324 132.952419,20.0361335 C132.952419,39.9097936 120.48856,40.9955282 120.48856,40.9955282 L138.951048,126.476324 L138.951048,149.236129 L1.9434571,149.23613 L1.9434571,124.553641 L89.5247885,124.553641 Z" id="Polygon-1"></path>
                <g id="Holder" transform="translate(0.000000, 78.476821)">
                    <path d="M16.8874172,33.7748344 C26.2140802,33.7748344 33.7748344,26.2140802 33.7748344,16.8874172 C33.7748344,7.56075423 26.2140802,0 16.8874172,0 C7.56075423,0 0,7.56075423 0,16.8874172 C0,26.2140802 7.56075423,33.7748344 16.8874172,33.7748344 Z M17.384106,26.8211921 C22.5960647,26.8211921 26.8211921,22.5960647 26.8211921,17.384106 C26.8211921,12.1721472 22.5960647,7.94701987 17.384106,7.94701987 C12.1721472,7.94701987 7.94701987,12.1721472 7.94701987,17.384106 C7.94701987,22.5960647 12.1721472,26.8211921 17.384106,26.8211921 Z" id="Combined-Shape"></path>
                </g>
                <path d="M14.999258,68.3833026 L76.9551501,68.3833026 C76.9551501,68.3833026 73.3168984,117.885722 64.5078889,117.885722 L27.1785233,117.885722 C18.9771652,117.885722 14.999258,68.3833026 14.999258,68.3833026 Z" id="Polygon-2"></path>
            </g>
        </g>
    </g>
</svg>