<?xml version="1.0" encoding="UTF-8" standalone="no"?>
<svg width="350px" height="220px" viewBox="0 0 350 220" version="1.1" xmlns="http://www.w3.org/2000/svg" xmlns:xlink="http://www.w3.org/1999/xlink">
    <!-- Generator: Sketch 3.6.1 (26313) - http://www.bohemiancoding.com/sketch -->
    <title>Artboard 4</title>
    <desc>Created with Sketch.</desc>
    <defs></defs>
    <g id="Page-1" stroke="none" stroke-width="1" fill="none" fill-rule="evenodd">
        <g id="Artboard-4" fill="#FFFFFF">
            <g id="Disc" transform="translate(101.000000, 70.000000)">
                <path d="M75,150 C116.421356,150 150,116.421356 150,75 C150,33.5786438 116.421356,0 75,0 C33.5786438,0 0,33.5786438 0,75 C0,116.421356 33.5786438,150 75,150 Z M75,105 C91.5685425,105 105,91.5685425 105,75 C105,58.4314575 91.5685425,45 75,45 C58.4314575,45 45,58.4314575 45,75 C45,91.5685425 58.4314575,105 75,105 Z M116.44773,28.0887111 L121.916725,33.5322919 L103.859458,50.1106189 L100.114988,46.0036242 L116.44773,28.0887111 Z M33.4250648,121.713752 L27.9560697,116.270171 L46.0133362,99.6918438 L49.7578059,103.798838 L33.4250648,121.713752 Z" id="Combined-Shape"></path>
                <circle id="Oval-17-Copy-2" cx="75" cy="75" r="5"></circle>
            </g>
        </g>
    </g>
</svg>