<?xml version="1.0" encoding="UTF-8" standalone="no"?>
<svg width="350px" height="220px" viewBox="0 0 350 220" version="1.1" xmlns="http://www.w3.org/2000/svg" xmlns:xlink="http://www.w3.org/1999/xlink">
    <!-- Generator: Sketch 3.6.1 (26313) - http://www.bohemiancoding.com/sketch -->
    <title>Artboard 4</title>
    <desc>Created with Sketch.</desc>
    <defs></defs>
    <g id="Page-1" stroke="none" stroke-width="1" fill="none" fill-rule="evenodd">
        <g id="Artboard-4">
            <g id="Controller" transform="translate(99.000000, 74.000000)">
                <path d="M47,86.5 L47,77 L38,77 L38,86.5 L28.5,86.5 L28.5,95.5 L38,95.5 L38,105 L47,105 L47,95.5 L56.5,95.5 L56.5,86.5 L47,86.5 Z M76.4613569,57.8447294 C87.2492256,57.8447294 102.137646,44.6805541 110.695259,48.5225029 C119.672123,37.7793063 183.616695,125.597752 135.812267,143.725018 C118.686722,149.139137 87.9554176,116.657833 76.4613569,116.657829 C64.9672963,116.657825 39.7343139,145.167461 16.9999998,145.167465 C-27.8984311,120.528126 30.3072763,40.5688438 45.8030852,48.5225029 C54.6459222,45.5422439 65.6734883,57.8447295 76.4613569,57.8447294 Z M101,99 C104.313708,99 107,96.3137085 107,93 C107,89.6862915 104.313708,87 101,87 C97.6862915,87 95,89.6862915 95,93 C95,96.3137085 97.6862915,99 101,99 Z M113,111 C116.313708,111 119,108.313708 119,105 C119,101.686292 116.313708,99 113,99 C109.686292,99 107,101.686292 107,105 C107,108.313708 109.686292,111 113,111 Z M125,99 C128.313708,99 131,96.3137085 131,93 C131,89.6862915 128.313708,87 125,87 C121.686292,87 119,89.6862915 119,93 C119,96.3137085 121.686292,99 125,99 Z M113,87 C116.313708,87 119,84.3137085 119,81 C119,77.6862915 116.313708,75 113,75 C109.686292,75 107,77.6862915 107,81 C107,84.3137085 109.686292,87 113,87 Z" id="Combined-Shape" fill="#FFFFFF"></path>
                <path d="M134.031887,0.358940095 C134.031887,0.358940095 135.454063,9.53909969 119.381786,16.7972927 C103.309509,24.0554857 91.369166,29.2691764 86.3972645,34.3283043 C78.3040775,42.563477 76.5,58.5 76.5,58.5" id="Line" stroke="#FFFFFF" stroke-width="5" stroke-linecap="square"></path>
            </g>
        </g>
    </g>
</svg>