<?xml version="1.0" encoding="UTF-8" standalone="no"?>
<svg width="350px" height="220px" viewBox="0 0 350 220" version="1.1" xmlns="http://www.w3.org/2000/svg" xmlns:xlink="http://www.w3.org/1999/xlink">
    <!-- Generator: Sketch 3.6.1 (26313) - http://www.bohemiancoding.com/sketch -->
    <title>Artboard 4</title>
    <desc>Created with Sketch.</desc>
    <defs></defs>
    <g id="Page-1" stroke="none" stroke-width="1" fill="none" fill-rule="evenodd">
        <g id="Artboard-4" fill="#FFFFFF">
            <g id="Office" transform="translate(106.000000, 70.000000)">
                <path d="M93,23 L93,40 L116,40 L116,23 L93,23 Z M81,23 L81,40 L59,40 L59,23 L81,23 Z M47,23 L47,40 L24,40 L24,23 L47,23 Z M12,22 L12,128 L12,139 L59,139 L59,128 L59,110 L81,110 L81,128 L81,139 L128,139 L128,128 L128,22 L128,13.997152 C128,12.3416228 126.657425,11 125.001275,11 L14.9987248,11 C13.34285,11 12,12.3418707 12,13.997152 L12,22 Z M93,52 L93,69 L116,69 L116,52 L93,52 Z M81,52 L81,69 L59,69 L59,52 L81,52 Z M47,52 L47,69 L24,69 L24,52 L47,52 Z M93,81 L93,98 L116,98 L116,81 L93,81 Z M81,81 L81,98 L59,98 L59,81 L81,81 Z M47,81 L47,98 L24,98 L24,81 L47,81 Z M93,110 L93,127 L116,127 L116,110 L93,110 Z M24,110 L24,127 L47,127 L47,110 L24,110 Z M0,15.0000957 C0,6.71577162 6.71710308,0 14.9990536,0 L125.000946,0 C133.284695,0 140,6.71209931 140,15.0000957 L140,150 L0,150 L0,15.0000957 Z" id="Combined-Shape"></path>
            </g>
        </g>
    </g>
</svg>