<?xml version="1.0" encoding="UTF-8" standalone="no"?>
<svg width="100px" height="100px" viewBox="0 0 100 100" version="1.1" xmlns="http://www.w3.org/2000/svg" xmlns:xlink="http://www.w3.org/1999/xlink">
    <!-- Generator: Sketch 3.6.1 (26313) - http://www.bohemiancoding.com/sketch -->
    <title>Artboard 5</title>
    <desc>Created with Sketch.</desc>
    <defs></defs>
    <g id="Page-1" stroke="none" stroke-width="1" fill="none" fill-rule="evenodd">
        <g id="Artboard-5" fill="#373542">
            <path d="M35,46.2162992 C35,52.4158536 40.0660286,57.4325984 46.3264866,57.4325984 C52.5869447,57.4325984 57.6529732,52.4158536 57.6529732,46.2162992 C57.6529732,40.0167447 52.5869447,35 46.3264866,35 C40.0660286,35 35,40.0167447 35,46.2162992 L35,46.2162992 Z M39.1187224,46.2162992 C39.1187224,42.2803978 42.3519195,39.0786542 46.3264866,39.0786542 C50.3010537,39.0786542 53.5342508,42.2803978 53.5342508,46.2162992 C53.5342508,50.1522005 50.3010537,53.3539441 46.3264866,53.3539441 C42.3519195,53.3539441 39.1187224,50.1522005 39.1187224,46.2162992 L39.1187224,46.2162992 Z M55.222927,59.1048466 L60.6596406,64.4886702 C61.2774489,65.1004684 62.6160337,65.1820414 63.7074952,64.6314231 C64.8813311,64.0400183 65.3343905,61.6540055 64.7371758,60.8994545 L59.3828366,55.4952376 C58.4561241,54.3532144 56.6232926,54.3736077 55.4288631,55.5564174 C54.3579953,56.6168675 54.3168081,58.2075427 55.222927,59.1048466 L55.222927,59.1048466 Z" id="Shape"></path>
        </g>
    </g>
</svg>