<?xml version="1.0" encoding="UTF-8" standalone="no"?>
<svg width="3840px" height="2160px" viewBox="0 0 3840 2160" version="1.1" xmlns="http://www.w3.org/2000/svg" xmlns:xlink="http://www.w3.org/1999/xlink">
    <!-- Generator: Sketch 3.6.1 (26313) - http://www.bohemiancoding.com/sketch -->
    <title>Artboard 3</title>
    <desc>Created with Sketch.</desc>
    <defs></defs>
    <g id="Page-1" stroke="none" stroke-width="1" fill="none" fill-rule="evenodd">
        <g id="Artboard-3">
            <g id="Pattern" transform="translate(-144.000000, 1.000000)">
                <g id="Lines" stroke="#FFFFFF" stroke-linecap="square">
                    <path d="M1449.56932,736.089411 L1681.313,306.884549" id="Line"></path>
                    <path d="M1838.49568,377.381966 L1771.99531,495.568812" id="Line"></path>
                    <path d="M2064.19387,634.490193 L1915.07185,748.530132" id="Line"></path>
                    <path d="M1683.32817,308.958002 L1979.55705,632.416739" id="Line"></path>
                    <path d="M3873.80975,2181.28646 L3728.71805,1992.6022" id="Line"></path>
                    <path d="M1393.14477,325.54563 L1771.99531,493.495358 L1684.1584,308.026994 L1992.39157,121.535146 L1839.171,377.294838 L1980.22243,628.505284 L1796.82148,300.055091 L1826.5889,632.633521" id="Line"></path>
                    <path d="M3754.91516,2168.84574 L3728.71805,1992.6022" id="Line"></path>
                    <path d="M3660.20253,2177.13955 L3730.73321,1988.45529" id="Line"></path>
                    <path d="M3990.68917,2017.48364 L3728.71805,1988.45529 L3612.05694,2169.2587" id="Line"></path>
                    <path d="M1771.75944,1421.28383 L2162.93683,1206.76334 L2393.63952,991.626024 L2895.36137,1026.78903" id="Line"></path>
                    <path d="M1534.20615,991.124185 L1360.90218,1345.68472 L1773.46369,1422.63579 L1545.5093,2175.28089" id="Line"></path>
                    <path d="M1532.19098,991.124185 L1771.39831,1420.39887 L2185.58626,1104.22408 L1917.71727,745.707123 L1979.9776,626.986103" id="Line"></path>
                    <path d="M1141.24947,926.847128 L1449.56932,738.162865" id="Line"></path>
                    <path d="M3035.50217,1329.0971 L2894.4408,1024.29944" id="Line"></path>
                    <path d="M2833.98592,721.575237 L2690.90939,572.286589 L2368.52935,686.335667 L2181.87132,1107.87976 L2332.16647,1384.33339 L2391.31509,992.379268 L2691.59462,1392.24635 L2893.76224,1023.58638 L2938.8765,1397.01691 L2966.463,1343.26908 L2988.2843,1104.41394 L3034.95952,1330.76933 L3116.29736,1209.16781" id="Line"></path>
                    <path d="M3511.08051,899.892233 L3116.10867,1208.8368 L2691.90832,1392.42135 L2987.91281,1102.74167 L2827.26246,784.45559" id="Line"></path>
                    <path d="M865.172213,1152.85355 L1147.29496,785.852294" id="Line"></path>
                    <path d="M865.172213,1150.7801 L1111.02203,897.81878 L802.637027,990.390214 L1151.41887,786.624275" id="Line"></path>
                    <path d="M865.172213,1150.7801 L784.565715,1297.99529 L803.801368,990.974615 L1144.29556,927.523301 L1226.05032,599.396877 L1003.28243,777.824173 L1182.45378,724.069042 L1448.97441,737.295979 L1828.63497,631.402559 L1535.72733,989.581793 L1151.93478,786.877515" id="Line"></path>
                    <path d="M861.141888,379.455419 L1153.34044,789.999201 L1003.53802,778.486494 L866.850939,1152.87311 L670.380126,886.439927 L1116.31349,894.353687" id="Line"></path>
                    <path d="M4014.87112,443.732476 L3720.6574,369.088152 L3324.50086,658.613481" id="Line"></path>
                    <path d="M3511.08051,420.924488 L3511.08051,901.965687 L3804.01193,1153.2785 L3882.90112,859.759339 L3997.29768,729.040889 L3996.92457,1065.09383 L3790.98624,967.150966 L3521.08898,901.404966" id="Line"></path>
                    <path d="M4030.99242,1065.76851 L3883.88556,862.570071 L4016.30438,888.42079" id="Line"></path>
                    <path d="M355.336113,999.417998 L798.671852,991.124185 L1003.56168,775.64728 L1115.73606,892.542045 L1143.39154,925.546078 L1150.76097,785.280153 L1450.86292,735.844718 L1535.02683,991.963226 L1183.65598,724.166442 L863.414712,375.332751" id="Line"></path>
                    <path d="M241.981651,2016.38836 L600.587165,2211.83629" id="Line"></path>
                    <path d="M3990.68917,255.048212 L3823.43069,317.251816 L3678.25953,213.84893 L3426.15888,202.499373 L3719.76279,367.029065 L3511.1661,424.252607 L3327.56029,659.089168 L3511.39285,898.427125 L3882.29464,861.976794 L3790.54731,965.586675 L3805.34354,1153.95913 L4031.07061,1084.01365" id="Line"></path>
                    <path d="M4004.79531,406.410314 L3825.44585,317.251816 L3720.40301,366.054677 L3678.99312,212.998056 L3515.02522,425.249868 L3424.72728,203.126092 L3327.98266,660.063555 L2831.58408,715.379494 L2825.84431,787.282894 L2689.7305,574.687988 L2721.00356,0.439747518" id="Line"></path>
                    <path d="M241.981651,2016.38836 L478.311929,2235.37192" id="Line"></path>
                    <path d="M651.564993,1627.67439 L681.79243,1671.21691" id="Line"></path>
                    <path d="M86.3119267,916.555002 L357.351276,999.417998 L352.974617,1360.55788 L654.656042,1629.41156 L786.434381,1296.10039 L668.764382,885.403871 L801.270491,991.993269 L864.206994,1153.42315 L1144.00854,925.27327 L1536.09978,990.506323 L1917.86709,747.626057 L1826.63073,629.162489 L1775.96755,490.491438 L1450.97149,737.20674 L1114.91333,894.469961 L1151.99321,784.842487 L1180.8129,722.347981 L1393.82076,325.809535 L1683.63954,308.843378 L1711.75225,37.8716067 L1795.58095,297.199203 L2066.30616,638.512061 L2389.23847,992.383726 L2826.42025,788.5652 L2892.0755,1023.05867 L2988.28668,1107.93759 L3116.46256,1206.72854 L3098.12276,1308.21526 L3037.62406,1328.50031 L2940.45424,1397.44194 L2792.90512,2272.16022" id="Line"></path>
                    <path d="M80.5498824,914.800348 L353.320951,1360.1989 L786.514339,1298.93502 L680.134974,1670.71308 L1269.40225,2209.11675" id="Line"></path>
                    <path d="M111.501457,184.550795 L458.109398,209.432237 L846.346735,190.316587 L859.534856,379.036134 L1002.47371,779.941071 L670.250389,884.375788 L355.947011,998.496272 L87.8734583,1310.86322 L352.921115,1358.59312 L0.645327972,1595.0142 L106.125324,1767.16645 L242.051356,2015.54539 L259.098798,2240.8024" id="Line"></path>
                    <path d="M105.45597,248.827852 L141.728894,481.054638 L459.897556,208.38305 L860.105854,378.670521 L1449.49511,737.597279 L1390.79448,323.046056 L1710.55017,37.7439945 L1992.41303,120.486774 L1796.73076,297.782816 L1773.39618,491.168503 L1978.63708,628.897342 L2070.75248,636.003062 L2370.09604,688.870359 L2394.76595,991.326073 L2182.35382,1109.32914 L2163.88848,1208.13843 L2332.25675,1385.40842 L2569.82141,2195.40392" id="Line"></path>
                </g>
                <g id="Circles" transform="translate(140.721313, 30.078514)" fill="#FFFFFF">
                    <ellipse id="Oval-28" cx="214.614801" cy="969.339484" rx="5.03790612" ry="5.18363361"></ellipse>
                    <ellipse id="Oval-28-Copy" cx="210.584476" cy="1328.04693" rx="5.03790612" ry="5.18363361"></ellipse>
                    <ellipse id="Oval-28-Copy-2" cx="101.625062" cy="1986.26857" rx="5.03790612" ry="5.18363361"></ellipse>
                    <ellipse id="Oval-28-Copy-3" cx="539.349833" cy="1640.39733" rx="5.03790612" ry="5.18363361"></ellipse>
                    <ellipse id="Oval-28-Copy-4" cx="512.858843" cy="1599.66933" rx="5.03790612" ry="5.18363361"></ellipse>
                    <ellipse id="Oval-28-Copy-5" cx="647.874727" cy="1265.84333" rx="5.03790612" ry="5.18363361"></ellipse>
                    <ellipse id="Oval-28-Copy-6" cx="726.466063" cy="1120.70159" rx="5.03790612" ry="5.18363361"></ellipse>
                    <ellipse id="Oval-28-Copy-7" cx="661.980864" cy="961.045671" rx="5.03790612" ry="5.18363361"></ellipse>
                    <ellipse id="Oval-28-Copy-8" cx="528.980143" cy="855.299545" rx="5.03790612" ry="5.18363361"></ellipse>
                    <ellipse id="Oval-28-Copy-9" cx="720.420575" cy="349.376905" rx="5.03790612" ry="5.18363361"></ellipse>
                    <ellipse id="Oval-28-Copy-48" cx="706.037906" cy="161.183634" rx="5.03790612" ry="5.18363361"></ellipse>
                    <ellipse id="Oval-28-Copy-10" cx="1083.14982" cy="569.16297" rx="5.03790612" ry="5.18363361"></ellipse>
                    <ellipse id="Oval-28-Copy-11" cx="1306.83285" cy="708.084351" rx="5.03790612" ry="5.18363361"></ellipse>
                    <ellipse id="Oval-28-Copy-12" cx="1250.4083" cy="295.467116" rx="5.03790612" ry="5.18363361"></ellipse>
                    <ellipse id="Oval-28-Copy-13" cx="1570.81913" cy="5.18363361" rx="5.03790612" ry="5.18363361"></ellipse>
                    <ellipse id="Oval-28-Copy-14" cx="1655.45595" cy="270.585674" rx="5.03790612" ry="5.18363361"></ellipse>
                    <ellipse id="Oval-28-Copy-15" cx="1852.94187" cy="92.2686782" rx="5.03790612" ry="5.18363361"></ellipse>
                    <ellipse id="Oval-28-Copy-16" cx="1542.60685" cy="278.879488" rx="5.03790612" ry="5.18363361"></ellipse>
                    <ellipse id="Oval-28-Copy-17" cx="1685.68339" cy="602.338225" rx="5.03790612" ry="5.18363361"></ellipse>
                    <ellipse id="Oval-28-Copy-18" cx="1631.274" cy="463.416844" rx="5.03790612" ry="5.18363361"></ellipse>
                    <ellipse id="Oval-28-Copy-19" cx="1923.47256" cy="604.411679" rx="5.03790612" ry="5.18363361"></ellipse>
                    <ellipse id="Oval-28-Copy-20" cx="1838.83573" cy="600.264772" rx="5.03790612" ry="5.18363361"></ellipse>
                    <ellipse id="Oval-28-Copy-21" cx="2042.36714" cy="1075.08561" rx="5.03790612" ry="5.18363361"></ellipse>
                    <ellipse id="Oval-28-Copy-22" cx="2024.23068" cy="1178.75828" rx="5.03790612" ry="5.18363361"></ellipse>
                    <ellipse id="Oval-28-Copy-42" cx="2191.03791" cy="1354.18363" rx="5.03790612" ry="5.18363361"></ellipse>
                    <ellipse id="Oval-28-Copy-44" cx="2551.03791" cy="1362.18363" rx="5.03790612" ry="5.18363361"></ellipse>
                    <ellipse id="Oval-28-Copy-45" cx="2799.03791" cy="1367.18363" rx="5.03790612" ry="5.18363361"></ellipse>
                    <ellipse id="Oval-28-Copy-46" cx="2895.03791" cy="1301.18363" rx="5.03790612" ry="5.18363361"></ellipse>
                    <path d="M1221.03791,1319.36727 C1223.82026,1319.36727 1226.07581,1317.04648 1226.07581,1314.18363 C1226.07581,1311.32079 1223.82026,1309 1221.03791,1309 C1218.25555,1309 1216,1311.32079 1216,1314.18363 C1216,1317.04648 1218.25555,1319.36727 1221.03791,1319.36727 Z" id="Oval-28-Copy-43"></path>
                    <path d="M1631.03791,1396.36727 C1633.82026,1396.36727 1636.07581,1394.04648 1636.07581,1391.18363 C1636.07581,1388.32079 1633.82026,1386 1631.03791,1386 C1628.25555,1386 1626,1388.32079 1626,1391.18363 C1626,1394.04648 1628.25555,1396.36727 1631.03791,1396.36727 Z" id="Oval-28-Copy-49"></path>
                    <path d="M1777.03791,722.367267 C1779.82026,722.367267 1782.07581,720.046475 1782.07581,717.183634 C1782.07581,714.320792 1779.82026,712 1777.03791,712 C1774.25555,712 1772,714.320792 1772,717.183634 C1772,720.046475 1774.25555,722.367267 1777.03791,722.367267 Z" id="Oval-28-Copy-50"></path>
                    <path d="M2227.03791,663.367267 C2229.82026,663.367267 2232.07581,661.046475 2232.07581,658.183634 C2232.07581,655.320792 2229.82026,653 2227.03791,653 C2224.25555,653 2222,655.320792 2222,658.183634 C2222,661.046475 2224.25555,663.367267 2227.03791,663.367267 Z" id="Oval-28-Copy-51"></path>
                    <path d="M2685.03791,762.367267 C2687.82026,762.367267 2690.07581,760.046475 2690.07581,757.183634 C2690.07581,754.320792 2687.82026,752 2685.03791,752 C2682.25555,752 2680,754.320792 2680,757.183634 C2680,760.046475 2682.25555,762.367267 2685.03791,762.367267 Z" id="Oval-28-Copy-52"></path>
                    <path d="M2957.03791,1282.36727 C2959.82026,1282.36727 2962.07581,1280.04648 2962.07581,1277.18363 C2962.07581,1274.32079 2959.82026,1272 2957.03791,1272 C2954.25555,1272 2952,1274.32079 2952,1277.18363 C2952,1280.04648 2954.25555,1282.36727 2957.03791,1282.36727 Z" id="Oval-28-Copy-53"></path>
                    <path d="M1003.03791,900.367267 C1005.82026,900.367267 1008.07581,898.046475 1008.07581,895.183634 C1008.07581,892.320792 1005.82026,890 1003.03791,890 C1000.25555,890 998,892.320792 998,895.183634 C998,898.046475 1000.25555,900.367267 1003.03791,900.367267 Z" id="Oval-28-Copy-54"></path>
                    <path d="M862.037906,752.367267 C864.820265,752.367267 867.075812,750.046475 867.075812,747.183634 C867.075812,744.320792 864.820265,742 862.037906,742 C859.255547,742 857,744.320792 857,747.183634 C857,750.046475 859.255547,752.367267 862.037906,752.367267 Z" id="Oval-28-Copy-55"></path>
                    <path d="M1010.03791,762.367267 C1012.82026,762.367267 1015.07581,760.046475 1015.07581,757.183634 C1015.07581,754.320792 1012.82026,752 1010.03791,752 C1007.25555,752 1005,754.320792 1005,757.183634 C1005,760.046475 1007.25555,762.367267 1010.03791,762.367267 Z" id="Oval-28-Copy-56"></path>
                    <ellipse id="Oval-28-Copy-39" cx="1393.03791" cy="961.183634" rx="5.03790612" ry="5.18363361"></ellipse>
                    <ellipse id="Oval-28-Copy-40" cx="323.433573" cy="179.353723" rx="5.03790612" ry="5.18363361"></ellipse>
                    <ellipse id="Oval-28-Copy-41" cx="5.03790612" cy="448.90267" rx="5.03790612" ry="5.18363361"></ellipse>
                    <ellipse id="Oval-28-Copy-23" cx="2249.92887" cy="965.192578" rx="5.03790612" ry="5.18363361"></ellipse>
                    <ellipse id="Oval-28-Copy-24" cx="2751.70432" cy="996.294379" rx="5.03790612" ry="5.18363361"></ellipse>
                    <ellipse id="Oval-28-Copy-25" cx="2548.17292" cy="540.134622" rx="5.03790612" ry="5.18363361"></ellipse>
                    <ellipse id="Oval-28-Copy-26" cx="2691.24945" cy="685.276363" rx="5.03790612" ry="5.18363361"></ellipse>
                    <ellipse id="Oval-28-Copy-27" cx="3281.69205" cy="173.133362" rx="5.03790612" ry="5.18363361"></ellipse>
                    <ellipse id="Oval-28-Copy-28" cx="3372.37436" cy="390.845974" rx="5.03790612" ry="5.18363361"></ellipse>
                    <ellipse id="Oval-28-Copy-29" cx="3186.97941" cy="627.219666" rx="5.03790612" ry="5.18363361"></ellipse>
                    <ellipse id="Oval-28-Copy-30" cx="3579.93609" cy="336.936184" rx="5.03790612" ry="5.18363361"></ellipse>
                    <ellipse id="Oval-28-Copy-32" cx="3743.16425" cy="832.491557" rx="5.03790612" ry="5.18363361"></ellipse>
                    <ellipse id="Oval-28-Copy-33" cx="3370.35919" cy="869.813719" rx="5.03790612" ry="5.18363361"></ellipse>
                    <ellipse id="Oval-28-Copy-34" cx="3664.57291" cy="1124.84849" rx="5.03790612" ry="5.18363361"></ellipse>
                    <ellipse id="Oval-28-Copy-35" cx="3648.45161" cy="936.164229" rx="5.03790612" ry="5.18363361"></ellipse>
                    <ellipse id="Oval-28-Copy-36" cx="2973.37219" cy="1178.75828" rx="5.03790612" ry="5.18363361"></ellipse>
                    <ellipse id="Oval-28-Copy-37" cx="2848.43212" cy="1073.01216" rx="5.03790612" ry="5.18363361"></ellipse>
                    <ellipse id="Oval-28-Copy-38" cx="3590.0119" cy="1958.37678" rx="5.03790612" ry="5.18363361"></ellipse>
                    <path d="M3537.61768,190.757717 C3540.40004,190.757717 3542.65558,188.436925 3542.65558,185.574083 C3542.65558,182.711241 3540.40004,180.39045 3537.61768,180.39045 C3534.83532,180.39045 3532.57977,182.711241 3532.57977,185.574083 C3532.57977,188.436925 3534.83532,190.757717 3537.61768,190.757717 Z" id="Oval-28-Copy-31"></path>
                    <path d="M3684.03791,292.367267 C3686.82026,292.367267 3689.07581,290.046475 3689.07581,287.183634 C3689.07581,284.320792 3686.82026,282 3684.03791,282 C3681.25555,282 3679,284.320792 3679,287.183634 C3679,290.046475 3681.25555,292.367267 3684.03791,292.367267 Z" id="Oval-28-Copy-47"></path>
                </g>
            </g>
        </g>
    </g>
</svg>